<svg width="390" height="400" viewBox="0 0 390 400" fill="none" xmlns="http://www.w3.org/2000/svg">
<path d="M117.632 93.8622L78.3669 116.429L123.801 142.756C123.801 142.756 154.792 160.659 161.261 164.57C170.739 171.039 176.305 181.721 176.305 193.154V232.721L53.3934 161.712L14.1279 138.995C6.00398 134.331 0.888916 125.606 0.888916 116.278C0.888916 104.092 9.01283 94.6144 19.2429 91.3047C19.5438 90.8533 19.9951 90.402 20.4464 89.9507L136.287 23.3046H136.438L162.163 8.4108L171.19 3.1453C172.845 2.24265 174.5 1.34 176.155 0.888672V60.0126L117.482 93.8622H117.632Z" fill="#8CAEFF"/>
<path d="M44.0659 194.193L176.305 270.167V363.893C176.305 381.043 164.42 394.132 149.827 397.893C147.119 398.494 144.11 398.946 141.252 398.946C137.641 398.946 134.181 398.344 130.57 396.99L123.951 393.079L53.3934 352.459L14.1279 329.742C6.00398 325.078 0.888916 316.353 0.888916 307.025C0.888916 288.972 18.4907 277.087 34.5881 281.901L123.801 333.353V300.255L21.4995 241.282C13.3756 236.468 8.41105 227.893 8.41105 218.565C8.41105 199.76 27.3668 187.574 44.0659 194.193Z" fill="#213BEC"/>
<path d="M389.332 307.201C389.332 316.679 384.367 325.254 376.093 329.918L336.827 352.635L266.27 393.254L259.65 397.166C256.039 398.52 252.579 399.122 248.969 399.122C246.11 399.122 243.252 398.67 240.393 398.069C225.801 394.308 213.916 381.219 213.916 364.069V270.343L346.155 194.369C362.854 187.9 381.81 200.086 381.81 218.741C381.81 228.219 376.845 236.794 368.721 241.458L266.42 300.431V333.529L355.633 282.077C371.88 277.263 389.332 289.148 389.332 307.201Z" fill="#213BEC"/>
<path d="M389.331 116.098C389.331 124.974 384.969 133.249 377.597 137.912C376.995 138.213 376.544 138.514 376.093 138.966L336.827 161.682L266.269 202.302L213.915 232.691V193.125C213.915 180.638 220.535 169.054 231.367 162.886L240.393 157.62L266.269 142.727L310.199 117.151L284.473 102.258L213.464 61.1867V1.16016C214.968 1.76193 216.322 2.36368 217.827 3.1159L284.473 41.6292L365.712 88.5673C366.765 89.1691 367.969 89.9213 368.871 90.8239C380.154 93.231 389.331 103.311 389.331 116.249V116.098Z" fill="#8CAEFF"/>
</svg>
