<svg width="36" height="36" viewBox="0 0 36 36" fill="none" xmlns="http://www.w3.org/2000/svg">
<rect width="36" height="36" fill="none"/>
<path d="M14.0108 12.787L11.9892 13.9489L14.3284 15.3044C14.3284 15.3044 15.9241 16.2262 16.2572 16.4276C16.7452 16.7607 17.0318 17.3106 17.0318 17.8993V19.9365L10.7033 16.2804L8.68164 15.1108C8.26336 14.8706 8 14.4214 8 13.9411C8 13.3137 8.41828 12.8257 8.945 12.6553C8.9605 12.6321 8.98373 12.6088 9.00697 12.5856L14.9713 9.15414H14.9791L16.3036 8.3873L16.7684 8.11619C16.8536 8.06971 16.9388 8.02324 17.024 8V11.0442L14.0031 12.787H14.0108Z" fill="#ffffff"/>
<path d="M10.2231 17.9531L17.0318 21.8648V26.6905C17.0318 27.5736 16.4198 28.2474 15.6685 28.4411C15.529 28.4721 15.3741 28.4953 15.227 28.4953C15.0411 28.4953 14.8629 28.4643 14.677 28.3946L14.3362 28.1932L10.7033 26.1018L8.68164 24.9322C8.26336 24.6921 8 24.2428 8 23.7626C8 22.833 8.90628 22.2211 9.73509 22.469L14.3284 25.1181V23.414L9.06119 20.3776C8.64291 20.1297 8.3873 19.6882 8.3873 19.2079C8.3873 18.2397 9.36328 17.6123 10.2231 17.9531Z" fill="#ffffff"/>
<path d="M28 23.7708C28 24.2587 27.7444 24.7003 27.3184 24.9404L25.2967 26.11L21.6638 28.2014L21.323 28.4028C21.1371 28.4725 20.9589 28.5035 20.773 28.5035C20.6259 28.5035 20.4787 28.4803 20.3315 28.4493C19.5802 28.2557 18.9682 27.5818 18.9682 26.6987V21.873L25.7769 17.9613C26.6367 17.6282 27.6127 18.2556 27.6127 19.2161C27.6127 19.7041 27.3571 20.1457 26.9388 20.3858L21.6716 23.4222V25.1263L26.2649 22.4772C27.1015 22.2293 28 22.8412 28 23.7708Z" fill="#ffffff"/>
<path d="M28 13.9316C28 14.3886 27.7754 14.8146 27.3958 15.0547C27.3648 15.0702 27.3416 15.0857 27.3184 15.1089L25.2967 16.2786L21.6638 18.37L18.9682 19.9347V17.8975C18.9682 17.2546 19.3091 16.6581 19.8668 16.3406L20.3315 16.0694L21.6638 15.3026L23.9256 13.9858L22.6011 13.2189L18.945 11.1043V8.01367C19.0225 8.04466 19.0922 8.07564 19.1696 8.11437L22.6011 10.0973L26.7839 12.5141C26.8381 12.545 26.9001 12.5838 26.9465 12.6302C27.5275 12.7542 28 13.2732 28 13.9393V13.9316Z" fill="#ffffff"/>
</svg>
