<svg xmlns="http://www.w3.org/2000/svg" version="1.1" viewBox="2.202186107635498 2.2379415035247803 576.292724609375 620.1587524414062" width="581.00" height="624.00">
<g stroke-width="2.00" fill="none" stroke-linecap="butt">
<path stroke="#5e77fe" d="&#10;  M 295.03 87.50&#10;  Q 294.64 87.23 293.98 87.40"/>
<path stroke="#6087fe" d="&#10;  M 170.57 178.23&#10;  Q 151.91 172.45 132.88 168.71&#10;  Q 125.41 167.25 118.88 167.15&#10;  Q 92.68 166.78 73.87 166.01&#10;  Q 50.37 165.04 27.43 159.93&#10;  Q 25.44 159.49 19.26 157.49"/>
<path stroke="#6087fe" d="&#10;  M 434.00 230.02&#10;  Q 442.22 236.66 451.22 242.25&#10;  Q 453.87 243.90 457.01 243.98"/>
<path stroke="#5d66fd" d="&#10;  M 544.25 484.46&#10;  Q 519.98 477.01 494.49 476.82&#10;  Q 481.48 476.73 462.57 478.23&#10;  C 446.12 479.54 429.65 476.65 412.96 472.98"/>
</g>
<path fill="#608dfe" d="&#10;  M 295.03 87.50&#10;  Q 294.64 87.23 293.98 87.40&#10;  C 289.96 89.40 285.91 91.36 282.02 93.61&#10;  Q 232.38 122.32 182.96 149.19&#10;  Q 179.64 151.00 176.28 154.41&#10;  C 169.78 161.01 167.85 169.11 170.57 178.23&#10;  Q 151.91 172.45 132.88 168.71&#10;  Q 125.41 167.25 118.88 167.15&#10;  Q 92.68 166.78 73.87 166.01&#10;  Q 50.37 165.04 27.43 159.93&#10;  Q 25.44 159.49 19.26 157.49&#10;  Q 25.06 149.03 32.59 144.56&#10;  Q 68.07 123.54 72.99 120.74&#10;  Q 94.87 108.27 116.86 95.99&#10;  Q 122.49 92.84 134.18 85.99&#10;  C 153.25 74.82 172.55 64.06 191.70 53.04&#10;  Q 199.29 48.67 211.56 41.82&#10;  Q 220.46 36.87 266.64 10.07&#10;  Q 273.53 6.07 277.32 4.77&#10;  C 285.74 1.87 294.36 1.31 303.26 3.88&#10;  C 314.89 7.23 324.81 14.57 335.13 20.51&#10;  Q 399.04 57.30 406.34 61.49&#10;  Q 446.14 84.40 457.33 90.79&#10;  Q 483.91 105.97 488.21 108.50&#10;  Q 497.34 113.88 551.18 145.40&#10;  Q 556.41 148.46 561.13 152.85&#10;  C 570.95 161.98 573.85 175.97 570.70 188.75&#10;  Q 567.71 200.85 557.67 208.38&#10;  Q 549.67 214.37 539.36 215.71&#10;  Q 530.50 216.87 521.99 214.43&#10;  Q 516.72 212.92 506.61 207.10&#10;  Q 476.88 189.99 466.78 184.41&#10;  Q 446.24 173.08 421.76 158.93&#10;  Q 411.67 153.10 404.40 148.98&#10;  Q 337.41 111.06 327.00 105.00&#10;  Q 305.74 92.63 298.61 88.90&#10;  Q 297.37 88.25 295.03 87.50&#10;  Z"/>
<path fill="#5b60fd" d="&#10;  M 295.03 87.50&#10;  L 293.98 87.40&#10;  Q 294.64 87.23 295.03 87.50&#10;  Z"/>
<path fill="#5f81fd" d="&#10;  M 434.00 230.02&#10;  Q 442.22 236.66 451.22 242.25&#10;  Q 453.87 243.90 457.01 243.98&#10;  Q 458.38 244.58 459.38 245.62&#10;  Q 459.73 245.99 459.28 246.23&#10;  C 456.56 247.69 453.91 248.96 451.39 250.81&#10;  Q 445.55 255.11 441.80 257.31&#10;  Q 383.02 291.81 324.64 323.91&#10;  C 314.24 329.63 307.10 334.56 297.06 340.57&#10;  C 294.79 341.93 290.93 344.20 288.51 343.46&#10;  Q 286.97 342.99 285.96 342.40&#10;  Q 268.16 332.04 262.03 328.78&#10;  Q 241.08 317.62 221.44 306.14&#10;  Q 213.64 301.57 205.33 297.31&#10;  Q 194.75 291.88 189.15 288.60&#10;  Q 179.08 282.70 162.94 273.86&#10;  C 144.69 263.87 126.03 252.95 108.76 243.44&#10;  Q 101.76 239.58 91.43 233.39&#10;  Q 85.31 229.72 60.19 214.82&#10;  Q 55.38 211.98 49.75 212.36&#10;  C 44.65 212.71 41.10 213.30 38.22 212.34&#10;  Q 34.41 211.08 28.20 206.92&#10;  Q 23.68 203.89 20.25 199.09&#10;  Q 11.34 186.64 13.81 171.06&#10;  Q 14.90 164.12 19.26 157.49&#10;  Q 25.44 159.49 27.43 159.93&#10;  Q 50.37 165.04 73.87 166.01&#10;  Q 92.68 166.78 118.88 167.15&#10;  Q 125.41 167.25 132.88 168.71&#10;  Q 151.91 172.45 170.57 178.23&#10;  C 173.25 187.23 179.65 195.81 188.67 198.80&#10;  Q 195.50 201.06 201.00 199.20&#10;  Q 204.43 198.04 211.26 194.24&#10;  Q 246.94 174.41 281.12 153.87&#10;  Q 283.31 152.55 288.77 150.05&#10;  C 290.92 149.06 292.43 149.26 294.54 150.50&#10;  Q 302.14 154.93 330.04 171.06&#10;  Q 338.03 175.68 347.47 180.87&#10;  Q 391.11 204.85 434.00 230.02&#10;  Z&#10;  M 273.08 246.19&#10;  Q 273.05 247.61 275.25 248.92&#10;  Q 279.30 251.34 284.33 253.88&#10;  C 289.42 256.47 290.70 260.71 296.87 256.63&#10;  Q 303.79 252.05 310.90 248.08&#10;  A 0.55 0.54 -34.3 0 0 311.06 247.26&#10;  Q 306.67 241.88 300.95 237.96&#10;  C 296.39 234.84 292.03 233.80 287.17 236.42&#10;  Q 281.25 239.60 276.28 242.51&#10;  Q 274.88 243.33 273.41 245.26&#10;  A 1.66 1.63 65.2 0 0 273.08 246.19&#10;  Z"/>
<path fill="#608dfe" d="&#10;  M 457.01 243.98&#10;  Q 453.87 243.90 451.22 242.25&#10;  Q 442.22 236.66 434.00 230.02&#10;  Q 446.11 235.96 457.01 243.98&#10;  Z"/>
<path fill="#5e6cfd" d="&#10;  M 544.25 484.46&#10;  Q 519.98 477.01 494.49 476.82&#10;  Q 481.48 476.73 462.57 478.23&#10;  C 446.12 479.54 429.65 476.65 412.96 472.98&#10;  C 422.19 460.42 416.44 445.80 404.58 437.64&#10;  Q 400.25 434.66 393.42 434.05&#10;  Q 387.93 433.56 382.83 435.36&#10;  Q 381.06 435.98 373.59 440.23&#10;  Q 334.14 462.69 295.78 486.74&#10;  A 1.96 1.95 -46.0 0 1 293.76 486.78&#10;  C 281.95 479.99 272.29 474.95 262.43 469.09&#10;  C 250.59 462.05 237.91 455.78 225.14 448.41&#10;  Q 211.09 440.31 199.66 434.33&#10;  C 191.65 430.15 182.22 424.64 172.90 419.70&#10;  Q 166.33 416.22 162.18 413.90&#10;  Q 71.13 362.85 58.05 355.38&#10;  Q 48.65 350.01 27.64 338.12&#10;  C 22.00 334.93 17.14 330.33 13.99 324.50&#10;  Q 3.44 304.95 15.38 284.35&#10;  C 21.04 274.58 32.61 267.85 43.99 268.75&#10;  Q 51.47 269.34 57.96 272.05&#10;  Q 63.00 274.15 70.32 279.10&#10;  C 74.63 282.01 81.18 286.34 87.23 289.54&#10;  Q 87.33 289.60 110.79 302.61&#10;  Q 117.23 306.18 128.17 312.50&#10;  Q 140.64 319.70 153.81 327.06&#10;  Q 165.32 333.50 196.46 351.27&#10;  Q 201.61 354.20 212.68 360.18&#10;  Q 217.44 362.76 223.53 366.21&#10;  Q 227.92 368.71 234.27 372.17&#10;  Q 245.44 378.25 277.42 395.96&#10;  Q 279.99 397.38 283.24 399.44&#10;  C 288.14 402.54 292.93 406.29 298.37 403.12&#10;  Q 318.40 391.44 339.42 379.80&#10;  Q 345.55 376.40 356.81 369.91&#10;  Q 412.82 337.57 449.16 317.11&#10;  Q 489.51 294.40 520.24 275.95&#10;  Q 530.17 269.98 541.89 270.60&#10;  Q 551.87 271.12 558.74 276.27&#10;  Q 567.14 282.56 571.42 291.65&#10;  Q 579.73 309.30 570.61 326.38&#10;  Q 566.07 334.86 557.96 339.76&#10;  Q 531.51 355.73 511.46 367.69&#10;  C 506.47 370.67 497.33 375.07 490.05 380.61&#10;  C 482.53 386.33 479.90 394.41 482.86 403.69&#10;  C 485.35 411.49 490.75 415.56 498.09 418.88&#10;  C 503.35 421.26 507.97 420.89 513.21 418.79&#10;  Q 518.38 416.73 527.48 411.24&#10;  Q 537.18 405.39 548.59 407.12&#10;  Q 558.07 408.55 566.26 415.78&#10;  Q 579.78 427.70 578.36 447.46&#10;  C 577.51 459.26 567.79 469.97 558.13 476.39&#10;  Q 554.98 478.48 544.25 484.46&#10;  Z"/>
<path fill="#5b60fd" d="&#10;  M 412.96 472.98&#10;  C 429.65 476.65 446.12 479.54 462.57 478.23&#10;  Q 481.48 476.73 494.49 476.82&#10;  Q 519.98 477.01 544.25 484.46&#10;  C 531.02 492.04 518.04 499.79 504.47 507.13&#10;  Q 497.83 510.72 494.46 512.82&#10;  Q 488.34 516.63 484.57 518.66&#10;  Q 458.15 532.86 431.34 548.66&#10;  Q 422.72 553.73 413.98 558.59&#10;  Q 390.71 571.51 368.20 585.14&#10;  C 361.88 588.97 353.93 593.16 348.45 596.44&#10;  Q 327.19 609.17 316.78 615.03&#10;  Q 294.00 627.87 271.87 618.33&#10;  Q 269.18 617.16 254.34 608.75&#10;  Q 243.33 602.51 241.11 601.13&#10;  Q 234.30 596.92 227.89 593.45&#10;  Q 221.97 590.23 210.63 583.62&#10;  Q 209.04 582.69 199.78 577.55&#10;  C 195.10 574.95 190.01 571.58 185.49 569.11&#10;  Q 171.14 561.30 149.23 549.14&#10;  Q 143.60 546.01 131.98 539.19&#10;  Q 124.48 534.79 117.33 530.92&#10;  C 101.82 522.53 86.02 513.30 71.32 505.33&#10;  Q 44.07 490.55 28.76 481.87&#10;  C 18.24 475.90 8.33 467.93 4.13 456.24&#10;  C -0.24 444.08 3.00 430.42 12.02 421.06&#10;  Q 21.69 411.03 36.77 409.75&#10;  Q 46.36 408.94 54.75 413.75&#10;  Q 61.70 417.73 100.51 439.82&#10;  Q 113.05 446.96 128.43 455.27&#10;  Q 139.33 461.16 145.97 464.91&#10;  Q 213.55 503.01 290.26 544.43&#10;  A 1.38 1.38 0.0 0 0 291.58 544.43&#10;  C 305.60 536.74 320.16 527.75 334.34 519.71&#10;  Q 361.17 504.51 368.12 500.52&#10;  Q 373.23 497.59 385.60 490.81&#10;  Q 395.50 485.39 404.12 480.13&#10;  Q 408.76 477.30 412.96 472.98&#10;  Z"/>
</svg>